<svg xmlns="http://www.w3.org/2000/svg" width="558" height="349" fill="none" viewBox="0 0 558 349">
    <path fill="#A0616A" d="M482.271 232.89c-.566-.923-.924-1.96-1.046-3.037-.123-1.077-.008-2.168.336-3.195.344-1.028.91-1.968 1.657-2.753.746-.786 1.656-1.398 2.665-1.794l-1.048-26.326 11.719 7.077-.802 23.915c.553 1.739.448 3.62-.294 5.287-.742 1.667-2.069 3.005-3.731 3.758-1.662.754-3.542.872-5.285.331-1.742-.54-3.226-1.701-4.171-3.263z"/>
    <path fill="#F9A826" d="M497.912 215.824l-10.418 1.665c-.437.07-.884.051-1.314-.054-.431-.106-.835-.297-1.19-.562-.356-.264-.654-.597-.879-.979-.224-.382-.37-.805-.428-1.245l-4.408-33.199-21.779-29.81c-.806-1.104-1.378-2.361-1.68-3.695-.302-1.333-.328-2.714-.075-4.058.252-1.344.777-2.622 1.542-3.755s1.754-2.098 2.906-2.834h-.001c2.237-1.43 4.95-1.912 7.543-1.341 2.592.571 4.852 2.149 6.281 4.386l22.244 34.813 4.427 36.998c.028.236.032.474.01.711-.069.732-.38 1.421-.883 1.957-.504.536-1.172.888-1.898 1.002z"/>
    <path fill="#A0616A" d="M461.996 339.049h-9.038l-4.299-34.865 13.338.001-.001 34.864z"/>
    <path fill="#2F2E41" d="M446.503 336.466h17.429v10.976h-28.403c0-2.911 1.156-5.703 3.214-7.761 2.058-2.059 4.849-3.215 7.76-3.215z"/>
    <path fill="#A0616A" d="M500.125 323.578l-6.752 6.007-25.17-24.822 8.754-7.235 23.168 26.05z"/>
    <path fill="#2F2E41" d="M486.834 331.947l13.022-11.586 7.294 8.201-21.222 18.881c-.958-1.077-1.694-2.332-2.167-3.694-.473-1.362-.673-2.803-.589-4.242.084-1.439.451-2.847 1.079-4.144.629-1.297 1.506-2.458 2.583-3.416z"/>
    <path fill="#A0616A" d="M371.176 139.683c1.056-.246 2.152-.257 3.213-.033 1.06.223 2.058.677 2.925 1.328.866.651 1.579 1.485 2.088 2.442.509.956.803 2.013.859 3.095l25.305 7.322-10.415 8.885-22.433-8.315c-1.824-.025-3.576-.719-4.923-1.949-1.347-1.231-2.196-2.913-2.387-4.728-.19-1.815.293-3.636 1.356-5.119 1.063-1.484 2.633-2.525 4.412-2.928zM450.07 114.418c9.999 0 18.105-8.107 18.105-18.108 0-10.001-8.106-18.109-18.105-18.109s-18.105 8.108-18.105 18.109c0 10.001 8.106 18.108 18.105 18.108z"/>
    <path fill="#2F2E41" d="M463.105 332.521l-12.578-1.007c-.813-.065-1.573-.426-2.136-1.016-.563-.59-.889-1.367-.915-2.182l-3.511-106.045c-.029-.819.247-1.62.775-2.248.528-.627 1.27-1.036 2.082-1.148l25.078-3.499c.517-.073 1.043-.022 1.536.148.494.169.94.453 1.303.827.364.375.633.83.788 1.328.154.498.189 1.026.101 1.541l-9.596 56.217c-.027.154-.039.311-.037.468l.692 53.265c.006.439-.076.875-.24 1.283-.165.408-.408.779-.717 1.092-.309.312-.677.561-1.082.73-.406.169-.841.257-1.28.256-.088 0-.175-.003-.263-.01z"/>
    <path fill="#2F2E41" d="M479.215 319.802l-43.212-48.099c-.31-.346-.545-.754-.688-1.196-.143-.443-.192-.911-.143-1.373l5.458-51.171c.089-.853.506-1.638 1.162-2.19.657-.552 1.501-.827 2.357-.769l26.52 1.768c.507.034.999.184 1.439.438.44.255.816.607 1.098 1.029.282.423.464.904.53 1.408.067.504.017 1.016-.146 1.498l-15.889 47.015c-.153.448-.179.929-.075 1.391.104.462.333.887.662 1.227l36.706 38.046c.347.36.609.795.765 1.271.156.477.202.982.135 1.478-.068.497-.247.972-.524 1.389-.277.418-.645.767-1.076 1.022l-10.924 6.456c-.66.389-1.434.538-2.191.421-.757-.116-1.451-.49-1.964-1.059z"/>
    <path fill="#F9A826" d="M446.825 125.603s11.058-9.584 16.218-4.423c0 0 23.958 15.114 13.637 56.402 0 0 8.846 39.813 5.161 41.288-3.686 1.474-40.913 7.004-43.861 2.58-2.949-4.424-4.423-72.254 8.845-95.847z"/>
    <path fill="#2F2E41" d="M457.839 110.998c1.655-3.83 3.055-8.93-.118-11.638-1.841-1.57-4.493-1.574-6.904-1.77-6.795-.55-13.789-3.676-17.11-9.63-3.321-5.955-1.467-14.808 4.799-17.495 4.223-1.81 9.065-.577 13.486.677l13.273 3.764c3.944 1.119 8.085 2.352 10.924 5.31 4.528 4.716 4.189 12.69.593 18.15-3.597 5.461-9.013 11.156-15.213 13.229l-3.73-.597z"/>
    <path fill="#3F3D56" d="M507.263 349H324.447c-.195 0-.383-.078-.521-.216s-.216-.326-.216-.521c0-.196.078-.383.216-.522.138-.138.326-.216.521-.216h182.816c.195 0 .383.078.521.216.138.139.216.326.216.522 0 .195-.078.383-.216.521s-.326.216-.521.216zM401.156 8H42.16c-1.368.002-2.68.546-3.647 1.513-.967.968-1.511 2.28-1.513 3.648v265.422c.002 1.368.546 2.68 1.513 3.647.967.968 2.279 1.512 3.647 1.514h358.996c1.369-.002 2.68-.546 3.648-1.514.967-.967 1.511-2.279 1.513-3.647V13.161c-.002-1.368-.546-2.68-1.513-3.648-.968-.967-2.279-1.511-3.648-1.513zm3.686 270.583c0 .977-.389 1.915-1.08 2.606-.691.691-1.628 1.08-2.606 1.08H42.16c-.977 0-1.915-.389-2.606-1.08-.69-.691-1.08-1.629-1.08-2.606V13.161c0-.978.39-1.915 1.08-2.606.691-.692 1.629-1.08 2.606-1.08h358.996c.978 0 1.915.388 2.606 1.08.691.691 1.08 1.628 1.08 2.606v265.422z"/>
    <path fill="#3F3D56" d="M405.579 28.673H37.737v1.475H405.58v-1.475zM50.269 23.483c2.443 0 4.423-1.98 4.423-4.424 0-2.443-1.98-4.424-4.423-4.424s-4.423 1.981-4.423 4.424c0 2.443 1.98 4.424 4.423 4.424zM62.985 23.483c2.443 0 4.423-1.98 4.423-4.424 0-2.443-1.98-4.424-4.423-4.424s-4.423 1.981-4.423 4.424c0 2.443 1.98 4.424 4.423 4.424zM75.7 23.483c2.444 0 4.424-1.98 4.424-4.424 0-2.443-1.98-4.424-4.423-4.424s-4.423 1.981-4.423 4.424c0 2.443 1.98 4.424 4.423 4.424zM259.491 237.52c-.195 0-.383-.078-.521-.216-.138-.139-.216-.326-.216-.522v-30.228c0-.196.078-.383.216-.522.138-.138.326-.216.521-.216.196 0 .383.078.522.216.138.139.215.326.215.522v30.228c0 .196-.077.383-.215.522-.139.138-.326.216-.522.216zM258.481 194.757c-.13 0-.258-.034-.371-.1l-41.881-24.407c-.169-.099-.292-.26-.341-.449-.05-.189-.023-.39.076-.559.098-.168.259-.291.448-.341.189-.05.39-.023.559.075l41.882 24.407c.14.081.249.207.31.357.062.15.072.316.03.472-.042.157-.135.295-.264.394-.128.098-.286.151-.448.151z"/>
    <path fill="#3F3D56" d="M174.719 194.757c-.162 0-.32-.053-.449-.152-.128-.098-.221-.236-.263-.393-.043-.156-.032-.322.029-.472.062-.15.171-.276.311-.357l41.882-24.407c.169-.098.369-.124.558-.074.188.05.349.173.447.341.098.169.126.369.076.558-.049.189-.171.35-.339.449l-41.882 24.407c-.112.065-.24.1-.37.1zM301.973 231.621c-.13 0-.258-.034-.37-.1l-41.882-24.407c-.169-.098-.291-.26-.341-.449-.049-.189-.022-.39.076-.558.098-.169.26-.292.449-.342.188-.05.389-.023.558.075l41.882 24.407c.14.081.249.207.311.357.061.15.072.316.03.472-.043.157-.136.295-.264.394-.129.098-.287.151-.449.151z"/>
    <path fill="#3F3D56" d="M218.211 231.621c-.162 0-.32-.053-.448-.151-.129-.099-.222-.237-.264-.394-.042-.156-.032-.322.029-.472.062-.15.171-.276.311-.357l41.882-24.407c.169-.098.37-.124.558-.074.188.05.349.173.447.341.099.169.126.369.077.558-.05.189-.172.35-.34.449l-41.882 24.407c-.112.066-.24.1-.37.1zM216.736 157.156c-.195 0-.382-.078-.52-.216-.139-.137-.217-.325-.217-.52l-.068-26.827c0-.097.018-.193.055-.283.037-.089.091-.171.159-.239.069-.069.15-.123.239-.161.09-.037.185-.056.282-.056h.002c.195-.001.382.077.521.215.138.138.216.325.216.52l.068 26.828c.001.096-.018.192-.055.282-.037.09-.091.171-.159.24-.069.068-.15.123-.239.16-.089.037-.185.057-.282.057h-.002z"/>
    <path fill="#CCC" d="M226.27 171.102h-19.204c-.88-.001-1.723-.351-2.345-.973-.622-.622-.971-1.465-.972-2.345v-9.865c.001-.88.35-1.723.972-2.345.622-.622 1.465-.972 2.345-.973h19.204c.88.001 1.723.351 2.345.973.622.622.971 1.465.972 2.345v9.865c-.001.88-.35 1.723-.972 2.345-.622.622-1.465.972-2.345.973z"/>
    <path fill="#3F3D56" d="M194.485 120.952h-40.863c-.196 0-.383-.077-.522-.216-.138-.138-.215-.326-.215-.521 0-.196.077-.383.215-.521.139-.139.326-.216.522-.216h40.863c.195 0 .383.077.521.216.138.138.216.325.216.521 0 .195-.078.383-.216.521-.138.139-.326.216-.521.216zM216.668 110.421c-.196 0-.383-.077-.521-.216-.139-.138-.216-.325-.216-.521v-25.52c0-.195.077-.382.216-.52.138-.139.325-.217.521-.217.195 0 .383.078.521.216.138.139.216.326.216.522v25.519c0 .196-.078.383-.216.521-.138.139-.326.216-.521.216zM137.723 120.952c-.132 0-.262-.035-.375-.103l-39.67-23.516c-.168-.1-.29-.263-.337-.452-.048-.189-.02-.39.08-.557.1-.168.262-.29.45-.339.19-.048.39-.02.559.08l39.67 23.516c.139.082.247.208.307.358.061.15.07.315.028.471-.043.156-.136.293-.265.391-.128.098-.285.151-.447.151z"/>
    <path fill="#3F3D56" d="M98.054 144.469c-.161 0-.319-.053-.447-.151-.129-.098-.222-.236-.264-.392-.043-.155-.034-.321.027-.471.06-.15.169-.276.308-.358l39.67-23.516c.168-.1.369-.129.558-.08.19.048.352.17.452.338.1.168.128.369.08.559-.048.189-.17.352-.338.451l-39.67 23.517c-.114.067-.244.103-.376.103z"/>
    <path fill="#CCC" d="M150.673 132.844h-9.864c-.88 0-1.723-.35-2.345-.972-.622-.622-.971-1.466-.972-2.345v-19.208c.001-.879.35-1.723.972-2.345.622-.622 1.465-.972 2.345-.973h9.864c.88.001 1.723.351 2.345.973.621.622.971 1.466.972 2.345v19.208c-.001.879-.351 1.723-.972 2.345-.622.622-1.465.972-2.345.972zM226.27 86.149h-19.204c-.88-.001-1.723-.351-2.345-.973-.622-.622-.971-1.466-.972-2.345v-9.866c.001-.88.35-1.723.972-2.345.622-.622 1.465-.972 2.345-.973h19.204c.88.001 1.723.35 2.345.973.622.622.971 1.465.972 2.345v9.866c-.001.88-.35 1.723-.972 2.345-.622.622-1.465.972-2.345.973zM95.386 109.989h-9.864c-.88-.001-1.723-.351-2.345-.973-.622-.622-.971-1.465-.972-2.345V87.463c0-.88.35-1.722.972-2.344.622-.622 1.465-.972 2.345-.973h9.864c.88 0 1.723.35 2.345.973.622.622.971 1.465.972 2.344v19.208c0 .88-.35 1.723-.972 2.345-.622.622-1.465.972-2.345.973zM95.386 156.438h-9.864c-.88-.001-1.723-.351-2.345-.973-.622-.622-.971-1.466-.972-2.345v-19.208c0-.879.35-1.723.972-2.345.622-.622 1.465-.972 2.345-.973h9.864c.88.001 1.723.351 2.345.973.622.622.971 1.466.972 2.345v19.208c0 .879-.35 1.723-.972 2.345-.622.622-1.465.972-2.345.973z"/>
    <path fill="#3F3D56" d="M279.714 120.952h-40.863c-.196 0-.383-.077-.521-.216-.139-.138-.216-.326-.216-.521 0-.196.077-.383.216-.521.138-.139.325-.216.521-.216h40.863c.196 0 .383.077.521.216.139.138.216.325.216.521 0 .195-.077.383-.216.521-.138.139-.325.216-.521.216zM295.613 120.952c-.162 0-.319-.053-.447-.151-.129-.097-.222-.235-.265-.391-.042-.156-.033-.321.028-.471.06-.15.168-.276.307-.358l39.671-23.517c.083-.05.175-.081.271-.095.096-.014.193-.009.287.015.094.024.182.067.259.125.078.058.143.13.193.214.049.083.081.175.095.271.014.096.009.194-.015.287-.024.094-.067.182-.125.26-.058.077-.131.143-.214.192l-39.67 23.516c-.114.068-.243.103-.375.103z"/>
    <path fill="#3F3D56" d="M335.282 144.469c-.132 0-.262-.036-.375-.103l-39.671-23.517c-.168-.099-.29-.262-.338-.451-.048-.19-.02-.391.08-.559.1-.168.262-.29.451-.338.19-.049.391-.02.559.08l39.67 23.516c.139.082.247.208.308.358.06.15.07.316.027.472-.042.155-.135.293-.264.391-.128.098-.286.151-.447.151z"/>
    <path fill="#CCC" d="M292.527 132.844h-9.864c-.88 0-1.723-.35-2.345-.972-.621-.622-.971-1.466-.972-2.345v-19.208c.001-.879.351-1.723.972-2.345.622-.622 1.465-.972 2.345-.973h9.864c.88.001 1.723.351 2.345.973.622.622.971 1.466.972 2.345v19.208c-.001.879-.35 1.723-.972 2.345-.622.622-1.465.972-2.345.972zM347.814 109.989h-9.864c-.88-.001-1.723-.351-2.345-.973-.622-.622-.971-1.465-.972-2.345V87.463c.001-.88.35-1.722.972-2.344.622-.622 1.465-.972 2.345-.973h9.864c.879 0 1.723.35 2.345.973.621.622.971 1.465.972 2.344v19.208c-.001.88-.351 1.723-.972 2.345-.622.622-1.466.972-2.345.973zM347.814 156.438h-9.864c-.88-.001-1.723-.351-2.345-.973-.622-.622-.971-1.466-.972-2.345v-19.208c.001-.879.35-1.723.972-2.345.622-.622 1.465-.972 2.345-.973h9.864c.879.001 1.723.351 2.345.973.621.622.971 1.466.972 2.345v19.208c-.001.879-.351 1.723-.972 2.345-.622.622-1.466.972-2.345.973zM183.515 208.704H164.31c-.879-.001-1.722-.351-2.344-.973-.622-.622-.972-1.466-.973-2.345v-9.866c.001-.88.351-1.723.973-2.345.622-.622 1.465-.972 2.344-.973h19.205c.879.001 1.723.351 2.344.973.622.622.972 1.465.973 2.345v9.866c-.001.879-.351 1.723-.973 2.345-.621.622-1.465.972-2.344.973zM268.889 208.704h-19.204c-.88-.001-1.723-.351-2.345-.973-.622-.622-.972-1.466-.973-2.345v-9.866c.001-.88.351-1.723.973-2.345.622-.622 1.465-.972 2.345-.973h19.204c.88.001 1.723.351 2.345.973.622.622.971 1.465.972 2.345v9.866c-.001.879-.35 1.723-.972 2.345-.622.622-1.465.972-2.345.973zM229.82 244.83h-19.205c-.879-.001-1.722-.35-2.344-.972-.622-.622-.972-1.466-.973-2.345v-9.866c.001-.88.351-1.723.973-2.345.622-.622 1.465-.972 2.344-.973h19.205c.879.001 1.722.351 2.344.973.622.622.972 1.465.973 2.345v9.866c-.001.879-.351 1.723-.973 2.345-.622.622-1.465.971-2.344.972zM311.644 244.83H292.44c-.88-.001-1.723-.35-2.345-.972-.622-.622-.971-1.466-.972-2.345v-9.866c.001-.88.35-1.723.972-2.345.622-.622 1.465-.972 2.345-.973h19.204c.88.001 1.723.351 2.345.973.622.622.971 1.465.972 2.345v9.866c-.001.879-.35 1.723-.972 2.345-.622.622-1.465.971-2.345.972zM268.889 244.83h-19.204c-.88-.001-1.723-.35-2.345-.972-.622-.622-.972-1.466-.973-2.345v-9.866c.001-.88.351-1.723.973-2.345.622-.622 1.465-.972 2.345-.973h19.204c.88.001 1.723.351 2.345.973.622.622.971 1.465.972 2.345v9.866c-.001.879-.35 1.723-.972 2.345-.622.622-1.465.971-2.345.972z"/>
    <path fill="#F9A826" d="M240.013 133.041h-46.69c-.88-.001-1.723-.351-2.345-.973-.622-.622-.972-1.465-.973-2.345v-19.016c.001-.88.351-1.723.973-2.345.622-.622 1.465-.972 2.345-.973h46.69c.88.001 1.723.351 2.345.973.622.622.971 1.465.972 2.345v19.016c-.001.88-.35 1.723-.972 2.345-.622.622-1.465.972-2.345.973zM382.426 159.916l1.711-10.412c.072-.437.231-.855.467-1.23.236-.375.545-.698.908-.952.364-.253.774-.432 1.207-.524.433-.092.881-.097 1.316-.013l32.886 6.304 35.159-11.252c1.302-.416 2.675-.562 4.036-.427 1.36.135 2.678.547 3.874 1.211 1.195.664 2.241 1.565 3.074 2.649.834 1.084 1.436 2.327 1.771 3.653v-.001c.65 2.575.25 5.302-1.11 7.582-1.361 2.28-3.571 3.925-6.145 4.575l-40.052 10.112-36.496-7.486c-.232-.047-.46-.12-.677-.215-.673-.297-1.228-.809-1.578-1.456-.349-.647-.473-1.392-.351-2.118z"/>
</svg>
