<svg width="933.32126" height="629.28662" xmlns="http://www.w3.org/2000/svg" data-name="Layer 1">
 <title>digital currency</title>

 <g>
  <title>Layer 1</title>
  <circle cx="603.48189" cy="110.6591" r="32" fill="#f2f2f2" id="svg_1"/>
  <rect x="349.76935" y="-50.85352" width="642" height="343" fill="#f2f2f2" transform="rotate(31.4591 174.109 -328.578)" id="svg_2"/>
  <path d="m677.98189,427.85911c-5,-11.5 -12.7,-21.6 -28.1,-30.1a98.14691,98.14691 0 0 0 -25.4,-10a62.21919,62.21919 0 0 0 16.3,-11a56.36778,56.36778 0 0 0 15.6,-23.3a77.109,77.109 0 0 0 3.5,-28.2c-1.1,-16.8 -4.4,-33.1 -13.2,-44.8s-21.2,-20.7 -37.6,-27c-12.6,-4.8 -25.5,-7.8 -45.5,-8.9l0,-63.9l-40,25l0,39l-32,0l0,-41l-41,-23l0,64l-87.1,0l28,48c8.65,0.01 14.51,0.81 17.5,2.3a13.22451,13.22451 0 0 1 6.5,6c1.3,2.5 1.9,8.4 1.9,17.5l0,173.2c0,9 -0.6,14.8 -1.9,17.4s-2,4.9 -5.1,6.30005s-3.2,1.3 -11.8,1.3l-0.1,0l-35,48l87,0l0,64l41,0l0,-64l32,0l0,64l40,0l0,-64.4c26,-1.3 44.5,-4.7 59.4,-10.3c19.3,-7.2 34.1,-17.7 44.7,-31.5s14.9,-34.9 15.8,-51.2c0.69998,-14.50008 -0.9,-33.2001 -5.4,-43.40005zm-186.5,-129.2l0.01,0l0,-1.33l27.96,0c15.73005,0 68.15,-5.24 69.02,37.57c0.88,42.81 -69.02,41.06 -69.02,41.06l-27.96,0l0,-3.3l-0.01,0l0,-74zm0,122l32,0c6.5,0 28.86,0.99 37,1.36a35.49854,35.49854 0 0 1 9.76,1.74c1.15,0.39 2.24,0.83 3.42,1.32a49.73214,49.73214 0 0 1 13.79,6.98a28.80655,28.80655 0 0 1 7.13,6.7a38.22857,38.22857 0 0 1 2.36,3.69a37.47292,37.47292 0 0 1 4.17,10.29a41.737,41.737 0 0 1 1.47,10.72c0,7.79 -1.44,14.24 -4.99,19.7c-4.81,8.06 -12.7,13.77 -21.58,17.8c-22.96,10.44 -52.53,9.7 -52.53,9.7l-32,0l0,-90z" fill="#f7931a" id="svg_3"/>
  <path d="m612.14146,112.00553a3.43718,3.43718 0 0 0 -1.57527,-1.74688a5.39315,5.39315 0 0 0 -1.42391,-0.58035a3.48217,3.48217 0 0 0 0.91377,-0.6384a3.28185,3.28185 0 0 0 0.87453,-1.35223a4.62294,4.62294 0 0 0 0.19621,-1.63661a4.9921,4.9921 0 0 0 -0.74,-2.6a4.6334,4.6334 0 0 0 -2.10784,-1.567a7.68187,7.68187 0 0 0 -2.5507,-0.51652l0,-3.70848l-2.24238,1.45089l0,2.2634l-1.7939,0l0,-2.37947l-2.29844,-1.33482l0,3.71429l-4.88278,0l1.56967,2.78571a2.44727,2.44727 0 0 1 0.981,0.13348a0.75246,0.75246 0 0 1 0.36438,0.34822a2.88367,2.88367 0 0 1 0.10652,1.01562l0,10.05179a2.888,2.888 0 0 1 -0.10652,1.00982c-0.07287,0.15089 -0.11212,0.28437 -0.2859,0.36563s-0.17939,0.07544 -0.6615,0.07544l-0.00561,0l-1.96208,2.78572l4.87717,0l0,3.71428l2.29844,0l0,-3.71428l1.7939,0l0,3.71428l2.24241,0l0,-3.7375a10.62847,10.62847 0 0 0 3.32994,-0.59777a5.47645,5.47645 0 0 0 2.50585,-1.82812a5.80186,5.80186 0 0 0 0.88574,-2.97143a6.75424,6.75424 0 0 0 -0.3027,-2.51871zm-10.45509,-7.49818l0.00056,0l0,-0.07719l1.56742,0c0.88182,0 3.82046,-0.30411 3.86923,2.1804c0.04933,2.48451 -3.86923,2.38295 -3.86923,2.38295l-1.56742,0l0,-0.19152l-0.00056,0l0,-4.29464zm0,7.08035l1.7939,0c0.36439,0 1.61788,0.05746 2.0742,0.07893a1.92939,1.92939 0 0 1 0.54715,0.101c0.06446,0.02264 0.12557,0.04817 0.19172,0.07661a2.75323,2.75323 0 0 1 0.77306,0.40509a1.63938,1.63938 0 0 1 0.3997,0.38884a2.482,2.482 0 0 1 0.36607,0.81134a2.502,2.502 0 0 1 0.08241,0.62214a2.085,2.085 0 0 1 -0.27974,1.14331a2.64842,2.64842 0 0 1 -1.20976,1.033a7.5542,7.5542 0 0 1 -2.94481,0.563l-1.7939,0l0,-5.22326z" fill="#6c63ff" opacity="0.3" id="svg_4"/>
  <line x1="890.59609" y1="591.74395" x2="890.59609" y2="458.19436" fill="#3f3d56" stroke="#3f3d56" stroke-miterlimit="10" stroke-width="2" id="svg_6"/>
  <circle cx="890.59609" cy="458.19436" r="18.8858" fill="#f7931a" id="svg_7"/>
  <path d="m853.40128,532.96972c-27.27962,41.83458 -19.805,95.04278 -19.805,95.04278s51.70364,-14.619 78.98326,-56.45362s19.805,-95.04278 19.805,-95.04278s-51.70364,14.61905 -78.98326,56.45362z" fill="#007f3f" id="svg_8"/>
  <path d="m833.45117,627.52598s-0.6641,-0.10594 -1.88635,-0.35324c-0.97495,-0.19779 -2.31724,-0.4804 -3.95629,-0.869c-14.65246,-3.45472 -53.608,-15.13287 -79.07671,-45.83666c-31.87654,-38.44683 -30.53425,-92.16081 -30.53425,-92.16081s48.74035,7.9197 80.85707,42.44555q2.08768,2.2254 4.06228,4.61332c27.73656,33.452 30.32227,78.46212 30.52718,89.58924c0.02824,1.66733 0.00707,2.5716 0.00707,2.5716z" fill="#007f3f" id="svg_9"/>
  <path d="m833.4441,624.95442c-0.72063,0.869 -1.35644,1.61076 -1.87928,2.21832c-1.1586,1.32112 -1.81566,2.01351 -1.81566,2.01351s-0.79829,-1.00324 -2.14063,-2.88247c-7.36862,-10.27226 -31.07113,-46.79747 -29.24137,-88.9887q0.14838,-3.31695 0.48748,-6.56322q2.08768,2.2254 4.06228,4.61332c27.73656,33.45203 30.32227,78.46217 30.52718,89.58924z" opacity="0.1" id="svg_11"/>
  <path d="m873.89263,540.3662c-2.15624,49.89649 -39.19548,88.8205 -39.19548,88.8205s-33.54326,-41.97419 -31.387,-91.87068s39.19548,-88.8205 39.19548,-88.8205s33.54328,41.97419 31.387,91.87068z" fill="#007f3f" id="svg_12"/>
  <circle cx="237.15556" cy="369.08439" r="42.72978" fill="#f7931a" id="svg_15"/>
  <circle cx="164.52594" cy="469.64849" r="42.72978" fill="#f7931a" id="svg_16"/>
  <circle cx="75.13563" cy="549.9601" r="42.72978" fill="#f7931a" id="svg_17"/>
  <line x1="75.09765" y1="627.23521" x2="75.09765" y2="549.72504" fill="#3f3d56" stroke="#3f3d56" stroke-miterlimit="10" stroke-width="2" id="svg_18"/>
  <circle cx="75.09765" cy="549.72504" r="10.96103" fill="#007f3f" id="svg_19"/>
  <path d="m75.09763,597.49616s-1.56586,-33.67836 -33.666,-29.7637" fill="#007f3f" id="svg_20"/>
  <line x1="237.18237" y1="627.77896" x2="237.18237" y2="369.24136" fill="#3f3d56" stroke="#3f3d56" stroke-miterlimit="10" stroke-width="2" id="svg_21"/>
  <circle cx="237.18237" cy="369.11888" r="10.96103" fill="#007f3f" id="svg_22"/>
  <path d="m237.18237,425.10835s-1.56586,-33.67836 -33.666,-29.76371" fill="#007f3f" id="svg_24"/>
  <path d="m237.18237,520.58273s-1.56586,-33.67836 -33.666,-29.76371" fill="#007f3f" id="svg_25"/>
  <path d="m237.18237,624.76599s7.04638,-65.46212 -33.666,-68.59384" fill="none" stroke="#3f3d56" stroke-miterlimit="10" stroke-width="2" id="svg_26"/>
  <path d="m237.18717,624.76599s-7.04638,-65.46212 33.666,-68.59384" fill="none" stroke="#3f3d56" stroke-miterlimit="10" stroke-width="2" id="svg_28"/>
  <path d="m237.85482,518.45564s-7.04638,-61.97031 33.666,-65.102" fill="none" stroke="#3f3d56" stroke-miterlimit="10" stroke-width="2" id="svg_30"/>
  <line x1="164.56493" y1="627.41442" x2="164.56493" y2="469.60063" fill="#3f3d56" stroke="#3f3d56" stroke-miterlimit="10" stroke-width="2" id="svg_31"/>
  <circle cx="164.56493" cy="469.60063" r="10.96103" fill="#007f3f" id="svg_32"/>
  <path d="m164.56493,514.24003s-1.56587,-33.67837 -33.666,-29.76371" fill="#007f3f" id="svg_33"/>
  <path d="m164.56493,624.40146s7.04638,-64.76376 -33.666,-67.89548" fill="none" stroke="#3f3d56" stroke-miterlimit="10" stroke-width="2" id="svg_34"/>
  <circle cx="130.89889" cy="556.50598" r="10.96103" fill="#007f3f" id="svg_35"/>
  <circle cx="766.48189" cy="369.6591" r="18" fill="#f2f2f2" id="svg_36"/>
  <path d="m576.01192,500.95909c-22.96,10.44 -52.53,9.7 -52.53,9.7l-32,0l0,-6.11c13.04,-3.64 31.07,-5.89 51,-5.89a233.65913,233.65913 0 0 1 33.53,2.3z" opacity="0.1" id="svg_37"/>
  <path d="m614.48189,518.6591c0,11.05 -32.24,20 -72,20s-72,-8.95 -72,-20c0,-5.51 8.02,-10.5 21,-14.11l0,6.11l32,0s29.57,0.74 52.53,-9.7c22.87003,3.34002 38.47,10.01 38.47,17.7z" opacity="0.1" id="svg_38"/>
  <rect x="521.04322" y="394.12881" width="30.63497" height="30.68959" fill="#2f2e41" id="svg_39"/>
  <path d="m532.43547,415.8317s2.53573,8.875 -1.9018,9.509a17.32288,17.32288 0 0 0 -7.60719,3.16967l8.24112,10.77684l15.21438,0l9.509,-9.509s-12.67865,-9.509 -10.14292,-15.21437s-13.31259,1.26786 -13.31259,1.26786z" fill="#ffb9b9" id="svg_40"/>
  <path d="m532.43547,415.8317s2.53573,8.875 -1.9018,9.509a17.32288,17.32288 0 0 0 -7.60719,3.16967l8.24112,10.77684l15.21438,0l9.509,-9.509s-12.67865,-9.509 -10.14292,-15.21437s-13.31259,1.26786 -13.31259,1.26786z" opacity="0.1" id="svg_41"/>
  <polygon points="536.239 526.136 550.82 531.207 560.962 531.841 560.328 522.966 539.409 516.779 536.239 526.136" fill="#ffb9b9" id="svg_42"/>
  <path d="m554.94006,524.23411s0,8.875 1.26786,8.875s18.384,-1.9018 23.4555,0s12.67864,-5.07146 8.875,-8.875s-10.00785,-9.509 -13.879,-8.24112s-19.71943,4.43752 -19.71943,4.43752l0.00007,3.8036z" fill="#2f2e41" id="svg_43"/>
  <path d="m508.34604,515.99299s-7.60718,15.21437 -2.53573,16.48224s10.77685,-0.63394 11.41078,-1.26787s9.509,-3.16966 10.77685,-1.90179s1.26787,-5.07146 1.26787,-5.07146l-20.91977,-8.24112z" fill="#2f2e41" id="svg_44"/>
  <path d="m514.68537,495.07323s-12.04472,16.48223 -3.16967,20.91976s51.34851,4.43752 54.51817,0s4.43753,-18.384 0,-19.6519s-51.3485,-1.26786 -51.3485,-1.26786z" fill="#2f2e41" id="svg_45"/>
  <path d="m514.68537,495.07323s-12.04472,16.48223 -3.16967,20.91976s51.34851,4.43752 54.51817,0s4.43753,-18.384 0,-19.6519s-51.3485,-1.26786 -51.3485,-1.26786z" opacity="0.2" id="svg_46"/>
  <circle cx="537.50693" cy="405.68879" r="14.58044" fill="#ffb9b9" id="svg_47"/>
  <path d="m514.68537,428.51035l12.67864,-2.53573s3.16966,10.14291 13.31258,8.24112s12.67864,-8.24112 12.67864,-8.24112s7.60719,3.16966 8.24112,3.16966s8.87505,3.16966 8.87505,5.07146s-9.509,20.91976 -9.509,20.91976l1.26786,34.23234l-46.911,-1.26787l3.16966,-33.5984l-3.80355,-25.99122z" fill="#6c63ff" id="svg_48"/>
  <path d="m507.71211,444.99258s-3.80359,33.59841 -1.26786,36.13414s12.67864,9.509 12.67864,9.509l0,-7.60719l-5.07146,-9.509l5.07146,-22.18763l-11.41078,-6.33932z" fill="#ffb9b9" id="svg_49"/>
  <path d="m573.32409,444.04168s-2.21876,34.54931 -2.21876,35.81717s-5.70539,5.70539 -7.60719,5.70539s-3.16966,-3.16966 -3.16966,-3.16966l4.43753,-5.07146l-3.16966,-25.99122l11.72774,-7.29022z" fill="#ffb9b9" id="svg_50"/>
  <path d="m567.30174,492.5375s28.52695,-15.84831 29.16088,0s-14.58044,22.18762 -14.58044,22.18762s-39.3038,11.78567 -40.88863,7.47767s-4.75449,-11.28126 -2.21876,-11.91519s5.70539,-1.9018 6.97325,-0.63393s17.11617,-9.509 17.11617,-9.509l4.43753,-7.60717z" fill="#2f2e41" id="svg_51"/>
  <path d="m580.61431,490.6357s-5.70539,2.53573 -7.60718,4.43753s-10.14292,5.07145 -10.14292,5.07145" fill="none" stroke="#000" stroke-miterlimit="10" stroke-width="2" opacity="0.2" id="svg_52"/>
  <path d="m518.48896,429.77821l-3.80359,-1.26786s-13.94651,14.58044 -9.509,18.384s6.97326,5.07146 8.24112,6.33932s7.60719,1.9018 7.60719,1.9018l-2.53572,-25.35726z" fill="#6c63ff" id="svg_53"/>
  <path d="m564.76601,432.94787l5.70539,1.26787s4.43752,9.509 5.70539,10.77684s-1.9018,0.63393 -3.80359,3.16966s-3.8036,6.97326 -7.60719,6.97326s-8.875,-6.33932 -8.875,-6.33932l8.875,-15.84831z" fill="#6c63ff" id="svg_54"/>
  <path d="m515.95323,498.24289s-24.08942,-17.11617 -32.33054,-4.43753s35.5002,29.79482 41.83952,32.33054s12.04471,5.07146 12.04471,5.07146s5.70539,-13.94651 5.70539,-16.48224s-4.43752,-2.53572 -5.70539,-2.53572s-6.97325,-1.26787 -8.24111,-3.16967s-13.31258,-10.77684 -13.31258,-10.77684z" fill="#2f2e41" id="svg_55"/>
  <path d="m502.64063,493.80535s6.33933,5.07146 12.04472,6.33932s7.60718,4.43753 7.60718,4.43753" fill="none" stroke="#000" stroke-miterlimit="10" stroke-width="2" opacity="0.2" id="svg_56"/>
  <path d="m511.5803,469.96976l0.50643,26.841a3.36009,3.36009 0 0 0 3.39725,3.2965l49.94949,-0.56123a3.36009,3.36009 0 0 0 3.31677,-3.16636l1.51614,-26.27972a3.36009,3.36009 0 0 0 -3.35452,-3.55363l-51.97206,0a3.36009,3.36009 0 0 0 -3.3595,3.42344z" fill="#575a89" id="svg_57"/>
  <path d="m505.80254,428.67008c1.36044,-3.002 3.18865,-5.81924 4.05984,-8.99785c1.0442,-3.80983 0.63756,-7.84085 0.51333,-11.78926a37.01665,37.01665 0 0 1 0.88372,-10.403a17.88521,17.88521 0 0 1 5.14221,-8.95254c6.64339,-5.93056 18.80176,-6.35642 26.91381,-3.88756c3.198,0.9733 6.60472,2.82677 7.39769,6.07421c0.11971,0.49027 0.1734,0.99547 0.30707,1.4821c0.66415,2.41785 3.13766,3.94774 4.03012,6.29093c1.15431,3.03076 -0.62556,6.32663 -0.85822,9.5614c-0.27162,3.77656 1.58487,7.34437 3.41475,10.65914c1.08781,1.97055 2.21886,4.06967 2.11089,6.31792a7.982,7.982 0 0 1 -1.09228,3.48262a13.28062,13.28062 0 0 1 -11.15615,6.395a6.99921,6.99921 0 0 1 -4.17879,-0.98656c-1.97972,-1.36319 -2.55955,-4.10818 -2.14713,-6.47618s1.61445,-4.50975 2.55626,-6.72117c0.289,-0.6786 0.54984,-1.36873 0.79026,-2.06578a14.18553,14.18553 0 1 0 -9.35726,1.58721a19.21586,19.21586 0 0 1 -0.93055,10.68479a40.34676,40.34676 0 0 1 -4.48666,7.823a10.80067,10.80067 0 0 1 -2.85833,3.19882a10.14284,10.14284 0 0 1 -2.435,1.03991c-3.58068,1.15158 -7.35129,2.07819 -11.07674,1.56014s-7.415,-2.765 -8.68447,-6.30565c-1.11228,-3.10242 -0.21881,-6.56967 1.14163,-9.57164z" fill="#2f2e41" id="svg_58"/>
  <ellipse cx="536.80054" cy="397.50197" rx="15.47356" ry="8.76835" fill="#2f2e41" id="svg_59"/>
  <path d="m773.21092,370.70535a2.67089,2.67089 0 0 0 -1.22408,-1.35743a4.191,4.191 0 0 0 -1.10647,-0.451a2.70561,2.70561 0 0 0 0.71005,-0.49607a2.55016,2.55016 0 0 0 0.67957,-1.05077a3.592,3.592 0 0 0 0.15246,-1.27174a3.87917,3.87917 0 0 0 -0.575,-2.02036a3.60041,3.60041 0 0 0 -1.63792,-1.21763a5.96938,5.96938 0 0 0 -1.98206,-0.40137l0,-2.88172l-1.74247,1.12743l0,1.7588l-1.394,0l0,-1.849l-1.786,-1.03724l0,2.88623l-3.79423,0l1.21973,2.16467a1.90167,1.90167 0 0 1 0.76233,0.10373a0.58465,0.58465 0 0 1 0.28315,0.27058a2.24093,2.24093 0 0 1 0.08277,0.78921l0,7.81086a2.24426,2.24426 0 0 1 -0.08277,0.7847c-0.05663,0.11725 -0.08712,0.221 -0.22216,0.28411s-0.1394,0.05863 -0.514,0.05863l-0.00436,0l-1.52466,2.16467l3.78983,0l0,2.88624l1.786,0l0,-2.88624l1.394,0l0,2.88624l1.74246,0l0,-2.90428a8.25855,8.25855 0 0 0 2.58757,-0.4645a4.25556,4.25556 0 0 0 1.94721,-1.42057a4.5084,4.5084 0 0 0 0.68827,-2.309a5.24829,5.24829 0 0 0 -0.23522,-1.95718zm-8.12426,-5.82658l0.00044,0l0,-0.06l1.218,0c0.68523,0 2.96873,-0.23631 3.00663,1.69431c0.03834,1.93062 -3.00663,1.8517 -3.00663,1.8517l-1.218,0l0,-0.14882l-0.00047,0l0.00003,-3.33719zm0,5.50188l1.394,0c0.28315,0 1.25719,0.04465 1.61178,0.06133a1.49943,1.49943 0 0 1 0.42516,0.07847c0.0501,0.01759 0.09758,0.03743 0.149,0.05953a2.13908,2.13908 0 0 1 0.60072,0.31478a1.274,1.274 0 0 1 0.31059,0.30215a1.92848,1.92848 0 0 1 0.28446,0.63046a1.94458,1.94458 0 0 1 0.064,0.48345a1.62015,1.62015 0 0 1 -0.21738,0.88842a2.05788,2.05788 0 0 1 -0.94006,0.80273a5.86982,5.86982 0 0 1 -2.28829,0.43744l-1.394,0l0.00002,-4.05876z" fill="#6c63ff" opacity="0.3" id="svg_60"/>
  <circle cx="64.48189" cy="432.6591" r="18" fill="#f2f2f2" id="svg_61"/>
  <path d="m71.21092,433.70535a2.67089,2.67089 0 0 0 -1.22408,-1.35743a4.191,4.191 0 0 0 -1.10647,-0.451a2.70561,2.70561 0 0 0 0.71,-0.49607a2.55016,2.55016 0 0 0 0.67957,-1.05077a3.592,3.592 0 0 0 0.15246,-1.27174a3.87917,3.87917 0 0 0 -0.575,-2.02036a3.60041,3.60041 0 0 0 -1.63792,-1.21763a5.96938,5.96938 0 0 0 -1.98206,-0.40137l0,-2.88172l-1.74247,1.12743l0,1.7588l-1.394,0l0,-1.849l-1.786,-1.03724l0,2.88623l-3.79423,0l1.21973,2.16467a1.90167,1.90167 0 0 1 0.76233,0.10373a0.58465,0.58465 0 0 1 0.28315,0.27058a2.24093,2.24093 0 0 1 0.08277,0.78921l0,7.81086a2.24426,2.24426 0 0 1 -0.08277,0.7847c-0.05663,0.11725 -0.08712,0.221 -0.22216,0.28411s-0.1394,0.05863 -0.514,0.05863l-0.00436,0l-1.52466,2.16467l3.78988,0l0,2.88624l1.786,0l0,-2.88624l1.394,0l0,2.88624l1.74246,0l0,-2.90428a8.25855,8.25855 0 0 0 2.58757,-0.4645a4.25556,4.25556 0 0 0 1.94721,-1.42057a4.5084,4.5084 0 0 0 0.68827,-2.309a5.24829,5.24829 0 0 0 -0.23522,-1.95718zm-8.12426,-5.82658l0.00044,0l0,-0.06l1.218,0c0.68523,0 2.96873,-0.23631 3.00663,1.69431c0.03834,1.93062 -3.00663,1.8517 -3.00663,1.8517l-1.218,0l0,-0.14882l-0.00047,0l0.00003,-3.33719zm0,5.50188l1.394,0c0.28315,0 1.25719,0.04465 1.61178,0.06133a1.49943,1.49943 0 0 1 0.42516,0.07847c0.0501,0.01759 0.09758,0.03743 0.149,0.05953a2.13908,2.13908 0 0 1 0.60072,0.31478a1.274,1.274 0 0 1 0.31059,0.30215a1.92848,1.92848 0 0 1 0.28446,0.63046a1.94458,1.94458 0 0 1 0.064,0.48345a1.62015,1.62015 0 0 1 -0.21738,0.88842a2.05788,2.05788 0 0 1 -0.94006,0.80273a5.86982,5.86982 0 0 1 -2.28829,0.43744l-1.394,0l0.00002,-4.05876z" fill="#6c63ff" opacity="0.3" id="svg_62"/>
  <circle cx="271.52086" cy="453.35361" r="10.96103" fill="#007f3f" id="svg_29"/>
  <circle cx="270.85321" cy="556.17215" r="10.96103" fill="#007f3f" id="svg_27"/>
  <circle cx="203.51633" cy="556.17215" r="10.96103" fill="#007f3f" id="svg_23"/>
 </g>
</svg>